General
Complete name                    : Mulholland Dr. (2001).mkv
Format                           : Matroska
File size                        : 1.17 GiB
Duration                         : 2h 20mn
Overall bit rate                 : 1 187 Kbps


Video
ID                               : 1
Format                           : AVC
Duration                         : 2h 20mn
Bit rate                         : 716 Kbps
Width                            : 716 pixels
Height                           : 556 pixels
Display aspect ratio             : 16:9
Frame rate                       : 25.000 fps
Resolution                       : 8 bits
Colorimetry                      : 4:2:0
Scan type                        : Progressive
Bits/(Pixel*Frame)               : 0.072
Stream size                      : 720 MiB (60%)
Writing library                  : x264 core 79


Audio
ID                               : 2
Format                           : AC-3
Format/Info                      : Audio Coding 3
Codec ID                         : A_AC3
Duration                         : 2h 20mn
Bit rate mode                    : Constant
Bit rate                         : 448 Kbps
Channel(s)                       : 6 channels
Channel positions                : Front: L C R, Surround: L R, LFE
Sampling rate                    : 48.0 KHz
Stream size                      : 451 MiB (38%)

Text #1
Language                         : Danish

Text #2
Language                         : Finnish

Text #3
Language                         : Norwegian

Text #4
Language                         : Swedish







